<?xml version="1.0" encoding="utf-8"?>
<!-- Generator: Adobe Illustrator 26.5.0, SVG Export Plug-In . SVG Version: 6.00 Build 0)  -->
<svg version="1.1" xmlns="http://www.w3.org/2000/svg" xmlns:xlink="http://www.w3.org/1999/xlink" x="0px" y="0px"
	 viewBox="0 0 612.2 857.5" style="enable-background:new 0 0 612.2 857.5;" xml:space="preserve">
<style type="text/css">
	.st0{fill:#F2F2F2;}
	.st1{font-family:'PTSans-Caption';}
	.st2{font-size:12px;}
	.st3{fill:none;stroke:#F1F1F1;stroke-width:1.5;stroke-miterlimit:10;}
	.st4{font-family:'MyriadPro-Regular';}
	.st5{letter-spacing:-1;}
	.st6{fill:#1C69FF;}
	.st7{fill:none;stroke:#F1F1F1;stroke-miterlimit:10;}
	.st8{display:none;}
	.st9{opacity:0.62;}
</style>
<g id="_x3C_Fondo_x3E__xA0_0_xA0_Imagen_00000174579206285145408180000002346791411333411230_">
	
		<image style="overflow:visible;" width="2551" height="3573" id="_x3C_Fondo_x3E__xA0_0_xA0_Imagen" xlink:href="69EF26967C680451.png"  transform="matrix(0.24 0 0 0.24 0 0)">
	</image>
	
		<image style="overflow:visible;enable-background:new    ;" width="770" height="2060" xlink:href="69EF26967C680453.png"  transform="matrix(0.2403 0 0 0.2403 199.5513 243.5145)">
	</image>
	<text transform="matrix(1 0 0 1 370.0313 279.1155)" class="st0 st1 st2">P</text>
	<text transform="matrix(1 0 0 1 376.9813 279.1155)" class="st0 st1 st2">aracaídas</text>
	<line class="st3" x1="294.7" y1="274.5" x2="363.5" y2="275.2"/>
	<text transform="matrix(1 0 0 1 106.4013 334.8456)" class="st0 st4 st2">C</text>
	<text transform="matrix(1 0 0 1 113.2813 334.8456)" class="st0 st4 st2">ápsula de la t</text>
	<text transform="matrix(1 0 0 1 178.8713 334.8456)" class="st0 st4 st2">r</text>
	<text transform="matrix(1 0 0 1 182.8413 334.8456)" class="st0 st4 st2">ipulación</text>
	<line class="st3" x1="233.8" y1="331.5" x2="269.5" y2="331.1"/>
	<text transform="matrix(1 0 0 1 363.6913 359.1155)" class="st0 st1 st2">Frenos de arrastre</text>
	<line class="st3" x1="305.8" y1="356.4" x2="353.5" y2="355.9"/>
	<text transform="matrix(1 0 0 1 134.9613 360.5856)" class="st0 st4 st2">A</text>
	<text transform="matrix(1 0 0 1 142.2713 360.5856)" class="st0 st4 st2">leta de anillo  </text>
	<line class="st3" x1="210.9" y1="357.9" x2="246.6" y2="357.4"/>
	<text transform="matrix(1 0 0 1 356.3113 517.6756)" class="st0 st1 st2">V</text>
	<text transform="matrix(1 0 0 1 363.1513 517.6756)" class="st0 st1 st2">ehículo de lanzamien</text>
	<text transform="matrix(1 0 0 1 491.1313 517.6756)" class="st0 st1 st2">t</text>
	<text transform="matrix(1 0 0 1 495.8613 517.6756)" class="st0 st1 st2">o  </text>
	<line class="st3" x1="301" y1="514.6" x2="348.8" y2="514.2"/>
	<text transform="matrix(1 0 0 1 122.6713 635.4056)" class="st0 st4 st2">A</text>
	<text transform="matrix(1 0 0 1 129.9813 635.4056)" class="st0 st4 st2">letas de popa  </text>
	<line class="st3" x1="202.5" y1="632.1" x2="250.3" y2="631.7"/>
	<text transform="matrix(1 0 0 1 399.4413 662.8256)" class="st0 st1 st2 st5">T</text>
	<text transform="matrix(1 0 0 1 405.5013 662.8256)" class="st0 st1 st2">ren de a</text>
	<text transform="matrix(1 0 0 1 453.6213 662.8256)" class="st0 st1 st2">t</text>
	<text transform="matrix(1 0 0 1 458.3513 662.8256)" class="st0 st1 st2">errizaje  </text>
	<line class="st3" x1="345.9" y1="660.8" x2="393.6" y2="660.3"/>
	<text transform="matrix(1 0 0 1 136.4413 688.2956)" class="st0 st4 st2">M</text>
	<text transform="matrix(1 0 0 1 146.1613 688.2956)" class="st0 st4 st2">o</text>
	<text transform="matrix(1 0 0 1 152.7513 688.2956)" class="st0 st4 st2">t</text>
	<text transform="matrix(1 0 0 1 156.6513 688.2956)" class="st0 st4 st2">or BE-3</text>
	<text transform="matrix(1 0 0 1 191.9513 688.2956)" class="st0 st4 st2">P</text>
	<text transform="matrix(1 0 0 1 198.1913 688.2956)" class="st0 st4 st2">M  </text>
	<line class="st3" x1="216.3" y1="684.2" x2="292.7" y2="682.9"/>
	<circle class="st6" cx="362.9" cy="276.1" r="2.5"/>
	<circle class="st7" cx="364.4" cy="274.6" r="2.5"/>
	<circle class="st6" cx="355.2" cy="356.1" r="2.5"/>
	<circle class="st7" cx="356.7" cy="354.6" r="2.5"/>
	<circle class="st6" cx="348.8" cy="514.2" r="2.5"/>
	<circle class="st7" cx="350.3" cy="512.7" r="2.5"/>
	<circle class="st6" cx="392.7" cy="661" r="2.5"/>
	<circle class="st7" cx="394.2" cy="659.5" r="2.5"/>
	<circle class="st6" cx="203.1" cy="632.7" r="2.5"/>
	<circle class="st7" cx="204.6" cy="631.2" r="2.5"/>
	<circle class="st6" cx="215.9" cy="684.3" r="2.5"/>
	<circle class="st7" cx="217.4" cy="682.8" r="2.5"/>
	<circle class="st6" cx="235.4" cy="331.8" r="2.5"/>
	<circle class="st7" cx="236.9" cy="330.3" r="2.5"/>
	<circle class="st6" cx="211.9" cy="357.4" r="2.5"/>
	<circle class="st7" cx="213.4" cy="355.9" r="2.5"/>
	<path class="st3" d="M111.5,714.2c0,0-2.5,0-34.5,0l3.7-440.9c12.7,0,25.5,0,38.2,0"/>
	<text transform="matrix(1 0 0 1 184.3267 509.4794)" class="st0 st4 st2">  </text>
	<text transform="matrix(1.073054e-02 -0.9999 0.9999 1.073054e-02 67.3135 509.3465)" class="st0 st4 st2">18 m</text>
	<text transform="matrix(1 0 0 1 69.9821 543.0114)" class="st0 st4 st2">  </text>
</g>
<g id="Imagen_xA0_1_xA0_Imagen_00000035502794265067493920000014261293683716842148_" class="st8">
	
		<image style="display:inline;overflow:visible;" width="2551" height="3573" id="Imagen_xA0_1_xA0_Imagen" xlink:href="69EF26967C680456.png"  transform="matrix(0.24 0 0 0.24 0 0)">
	</image>
</g>
<g id="Capa_de_vector_xA0_Imagen_00000075849152107104543950000004835830775426839990_">
	
		<image style="overflow:visible;" width="366" height="1131" xlink:href="69EF26967C680457.png"  transform="matrix(4.680468e-02 0 0 4.680468e-02 354.1582 664.7686)">
	</image>
</g>
<g id="Imagen_xA0_3_xA0_Imagen_00000063602762781711043020000011120849996710258566_" class="st8">
	
		<image style="display:inline;overflow:visible;" width="2551" height="3573" id="Imagen_xA0_3_xA0_Imagen" xlink:href="69EF26967C680452.png"  transform="matrix(0.24 0 0 0.24 0 0)">
	</image>
</g>
<g id="Imagen_insertada_xA0_Imagen_00000132810353194837137460000002099957117020048035_" class="st9">
	
		<image style="overflow:visible;" width="2551" height="3573" id="Imagen_insertada_xA0_Imagen" xlink:href="69EF26967C68045D.png"  transform="matrix(0.24 0 0 0.24 0 0)">
	</image>
</g>
</svg>
